<?xml version="1.0" encoding="iso-8859-1"?>
<!-- Uploaded to: SVG Repo, www.svgrepo.com, Generator: SVG Repo Mixer Tools -->
<svg fill="#000000" height="800px" width="800px" version="1.1" id="Layer_1" xmlns="http://www.w3.org/2000/svg" xmlns:xlink="http://www.w3.org/1999/xlink" 
	 viewBox="0 0 330.088 330.088" xml:space="preserve">
<g id="XMLID_505_">
	<path id="XMLID_506_" d="M165.045,153.06c12.007,0,23.015,4.341,31.554,11.527c10.84-15.002,17.527-37.996,17.527-64.688
		c0-47.409-21.1-83.161-49.082-83.161c-27.981,0-49.082,35.752-49.082,83.161c0,26.691,6.688,49.686,17.527,64.688
		C142.029,157.401,153.038,153.06,165.045,153.06z"/>
	<path id="XMLID_507_" d="M43.013,313.35c0.001,0,0,0,0.002,0c17.783,0,38.392-6.243,58.025-17.579
		c23.103-13.338,39.667-30.617,47.245-47.496c-18.836-6.865-32.323-24.953-32.323-46.133c0-2.945,0.275-5.826,0.775-8.631
		c-2.177-0.218-4.426-0.333-6.751-0.333c-17.785,0-38.394,6.243-58.028,17.579c-17.745,10.244-32.578,23.551-41.767,37.469
		c-11.225,17.001-13.253,33.557-5.712,46.617C11.37,306.777,25.054,313.349,43.013,313.35z"/>
	<path id="XMLID_508_" d="M319.898,248.226c-9.189-13.918-24.022-27.225-41.768-37.47c-19.633-11.336-40.24-17.578-58.025-17.578
		c-2.326,0-4.576,0.115-6.754,0.333c0.5,2.805,0.775,5.686,0.775,8.631c0,21.209-13.523,39.316-32.4,46.159
		c1.496,3.301,3.34,6.64,5.557,9.999c9.189,13.918,24.021,27.225,41.766,37.469c19.635,11.337,40.242,17.58,58.027,17.58
		c17.959,0,31.642-6.572,38.531-18.504C333.15,281.784,331.122,265.227,319.898,248.226z"/>
	<path id="XMLID_509_" d="M165.045,221.224c10.521,0,19.082-8.561,19.082-19.082c0-10.521-8.561-19.082-19.082-19.082
		c-10.521,0-19.082,8.561-19.082,19.082C145.963,212.663,154.523,221.224,165.045,221.224z"/>
</g>
</svg>